<?xml version="1.0" standalone="no"?>
<!DOCTYPE svg PUBLIC "-//W3C//DTD SVG 20010904//EN"
 "http://www.w3.org/TR/2001/REC-SVG-20010904/DTD/svg10.dtd">
<svg version="1.0" xmlns="http://www.w3.org/2000/svg"
 width="512.000000pt" height="512.000000pt" viewBox="0 0 512.000000 512.000000"
 preserveAspectRatio="xMidYMid meet">
<metadata>
Created by potrace 1.14, written by Peter Selinger 2001-2017
</metadata>
<g transform="translate(0.000000,512.000000) scale(0.100000,-0.100000)"
fill="#000000" stroke="none">
<path d="M2368 5115 c-2 -1 -37 -5 -78 -9 -41 -3 -86 -8 -100 -11 -13 -3 -42
-7 -65 -10 -167 -24 -449 -112 -640 -201 -123 -57 -339 -182 -415 -241 -212
-163 -370 -312 -490 -462 -19 -24 -39 -49 -45 -55 -66 -76 -221 -326 -277
-446 -83 -177 -122 -281 -167 -445 -17 -60 -33 -121 -35 -135 -29 -157 -32
-175 -43 -277 -10 -87 -10 -403 -1 -508 16 -186 80 -462 146 -640 133 -355
313 -636 577 -900 157 -158 177 -176 290 -261 219 -165 434 -281 686 -369 105
-37 266 -81 328 -91 18 -3 43 -8 55 -10 33 -7 147 -25 186 -30 19 -2 125 -6
235 -8 215 -5 357 7 545 44 30 6 66 13 80 16 33 6 161 42 230 64 256 82 529
231 765 415 133 104 298 262 381 365 16 19 31 37 34 40 17 15 106 138 162 225
160 244 276 518 345 810 15 66 44 242 50 310 15 155 6 605 -12 635 -1 3 -6 27
-9 54 -4 27 -14 79 -22 115 -9 36 -18 75 -20 86 -7 41 -55 192 -90 284 -138
372 -424 780 -719 1026 -33 28 -62 53 -65 56 -12 14 -200 148 -260 186 -217
135 -497 253 -730 309 -218 51 -386 71 -622 72 -102 0 -188 -1 -190 -3z"/>
</g>
</svg>
