<?xml version="1.0" encoding="utf-8"?>
<!-- Generator: Adobe Illustrator 22.0.0, SVG Export Plug-In . SVG Version: 6.00 Build 0)  -->
<svg version="1.1" id="Layer_1" xmlns="http://www.w3.org/2000/svg" xmlns:xlink="http://www.w3.org/1999/xlink" x="0px" y="0px"
	 width="224px" height="224px" viewBox="0 0 224 224" style="enable-background:new 0 0 224 224;" xml:space="preserve">
<style type="text/css">
	.st0{opacity:5.000000e-02;fill:#FFFFFF;}
	.st1{fill:none;stroke:url(#SVGID_1_);stroke-width:2;stroke-miterlimit:10;}
	.st2{fill:none;stroke:#00C6C1;stroke-width:4;stroke-linecap:round;stroke-linejoin:round;stroke-miterlimit:10;}
	.st3{fill:none;stroke:#FFFFFF;stroke-width:4;stroke-linecap:round;stroke-linejoin:round;stroke-miterlimit:10;}
	.st4{fill:#FFFFFF;stroke:#FFFFFF;stroke-width:4;stroke-linecap:round;stroke-linejoin:round;stroke-miterlimit:10;}
	.st5{fill:none;stroke:#00C6C1;stroke-width:2;stroke-linecap:round;stroke-linejoin:round;stroke-miterlimit:10;}
</style>
<g>
	<circle class="st0" cx="111.6" cy="112" r="100"/>
	<linearGradient id="SVGID_1_" gradientUnits="userSpaceOnUse" x1="1" y1="112" x2="223" y2="112">
		<stop  offset="0" style="stop-color:#00C6C1"/>
		<stop  offset="1" style="stop-color:#DF00EC"/>
	</linearGradient>
	<circle class="st1" cx="112" cy="112" r="110"/>
	<g>
		<g>
			<line class="st2" x1="111.6" y1="113" x2="111.6" y2="75"/>
			<line class="st2" x1="96.6" y1="90" x2="111.6" y2="75"/>
			<line class="st2" x1="126.6" y1="90" x2="111.6" y2="75"/>
		</g>
		<path class="st3" d="M144.1,110c13.3,0,24-10.7,24-24s-10.7-24-24-24c-1.4,0-2.8,0.1-4.2,0.4C138.4,50.9,128.5,42,116.6,42
			c-13,0-23.5,10.5-23.5,23.5c0,0.2,0,0.4,0,0.5c0,0,0,0,0,0c0-4.4-3.6-8-8-8s-8,3.6-8,8c0,0.3,0,0.7,0.1,1c-0.2,0-0.4,0-0.6,0
			c-11.9,0-21.5,9.6-21.5,21.5c0,11.9,9.6,21.5,21.5,21.5"/>
		<line class="st3" x1="141.6" y1="138" x2="141.6" y2="164"/>
		<polyline class="st3" points="81.6,164 81.6,127 130.7,127 		"/>
		<polygon class="st4" points="130.7,138 141.6,138 130.7,127 		"/>
		<path class="st5" d="M127.9,151.4H95.5c-0.8,0-1.5-0.7-1.5-1.5v-2.1c0-0.8,0.7-1.5,1.5-1.5h32.4c0.8,0,1.5,0.7,1.5,1.5v2.1
			C129.4,150.8,128.8,151.4,127.9,151.4z"/>
		<path class="st5" d="M127.9,162.4H95.5c-0.8,0-1.5-0.7-1.5-1.5v-2.1c0-0.8,0.7-1.5,1.5-1.5h32.4c0.8,0,1.5,0.7,1.5,1.5v2.1
			C129.4,161.7,128.8,162.4,127.9,162.4z"/>
	</g>
</g>
</svg>
