<?xml version="1.0" encoding="utf-8"?>
<!-- Generator: Adobe Illustrator 22.0.0, SVG Export Plug-In . SVG Version: 6.00 Build 0)  -->
<svg version="1.1" id="Layer_1" xmlns="http://www.w3.org/2000/svg" xmlns:xlink="http://www.w3.org/1999/xlink" x="0px" y="0px"
	 width="224px" height="224px" viewBox="0 0 224 224" style="enable-background:new 0 0 224 224;" xml:space="preserve">
<style type="text/css">
	.st0{opacity:5.000000e-02;fill:#FFFFFF;}
	.st1{fill:none;stroke:url(#SVGID_1_);stroke-width:2;stroke-miterlimit:10;}
	.st2{fill:none;stroke:#00C6C1;stroke-width:2;stroke-linecap:round;stroke-linejoin:round;stroke-miterlimit:10;}
	.st3{fill:none;stroke:#FFFFFF;stroke-width:4;stroke-linecap:round;stroke-linejoin:round;stroke-miterlimit:10;}
	.st4{fill:#131C36;}
	.st5{fill:none;stroke:#00C6C1;stroke-width:4;stroke-linecap:round;stroke-linejoin:round;stroke-miterlimit:10;}
	.st6{fill:#FFFFFF;}
</style>
<g>
	<circle class="st0" cx="112" cy="112" r="100"/>
	<linearGradient id="SVGID_1_" gradientUnits="userSpaceOnUse" x1="1" y1="112" x2="223" y2="112">
		<stop  offset="0" style="stop-color:#00C6C1"/>
		<stop  offset="1" style="stop-color:#DF00EC"/>
	</linearGradient>
	<circle class="st1" cx="112" cy="112" r="110"/>
	<g>
		<rect x="63.8" y="70.9" class="st2" width="96.5" height="54"/>
		<path class="st3" d="M162.6,57.9H61.4c0,5.3-4.3,9.6-9.6,9.6v60.7c5.3,0,9.6,4.3,9.6,9.6h101.2c0-5.3,4.3-9.6,9.6-9.6V67.6
			C166.9,67.6,162.6,63.2,162.6,57.9z"/>
		<g>
			<polygon class="st4" points="123.5,156.1 112,148.1 100.5,156.1 100.5,125.3 123.5,125.3 			"/>
			<polygon class="st0" points="123.5,156.1 112,148.1 100.5,156.1 100.5,125.3 123.5,125.3 			"/>
			<polygon class="st5" points="123.5,156.1 112,148.1 100.5,156.1 100.5,125.3 123.5,125.3 			"/>
		</g>
		<g>
			<circle class="st4" cx="112" cy="97.9" r="31.3"/>
			<circle class="st0" cx="112" cy="97.9" r="31.3"/>
			<path class="st3" d="M145.3,97.9c0,3.4-4.4,6-5.4,9.1c-1,3.2,1,7.9-0.9,10.5c-1.9,2.7-7.1,2.2-9.7,4.1c-2.6,1.9-3.8,6.9-6.9,8
				c-3,1-6.9-2.4-10.3-2.4s-7.2,3.4-10.3,2.4c-3.2-1-4.3-6.1-6.9-8c-2.7-1.9-7.8-1.5-9.7-4.1c-1.9-2.6,0.1-7.4-0.9-10.5
				c-1-3-5.4-5.7-5.4-9.1c0-3.4,4.4-6,5.4-9.1c1-3.2-1-7.9,0.9-10.5c1.9-2.7,7.1-2.2,9.7-4.1c2.6-1.9,3.8-6.9,6.9-8
				c3-1,6.9,2.4,10.3,2.4c3.4,0,7.2-3.4,10.3-2.4c3.2,1,4.3,6.1,6.9,8c2.7,1.9,7.8,1.5,9.7,4.1c1.9,2.6-0.1,7.4,0.9,10.5
				C140.8,91.9,145.3,94.5,145.3,97.9z"/>
		</g>
		<circle class="st2" cx="112" cy="97.9" r="20"/>
		<path class="st6" d="M122.5,93c-0.4,0-0.7-0.3-0.7-0.7v-3.6c0-0.3-0.3-0.6-0.6-0.6h-3.6c-0.4,0-0.7-0.3-0.7-0.7s0.3-0.7,0.7-0.7
			h3.6c1.1,0,2,0.9,2,2v3.6C123.2,92.7,122.9,93,122.5,93z M101.5,93c-0.4,0-0.7-0.3-0.7-0.7v-3.6c0-1.1,0.9-2,2-2h3.6
			c0.4,0,0.7,0.3,0.7,0.7s-0.3,0.7-0.7,0.7h-3.6c-0.3,0-0.6,0.3-0.6,0.6v3.6C102.2,92.7,101.9,93,101.5,93z M106.4,109.1h-3.6
			c-1.1,0-2-0.9-2-2v-3.6c0-0.4,0.3-0.7,0.7-0.7s0.7,0.3,0.7,0.7v3.6c0,0.3,0.3,0.6,0.6,0.6h3.6c0.4,0,0.7,0.3,0.7,0.7
			S106.8,109.1,106.4,109.1z M121.2,109.1h-3.6c-0.4,0-0.7-0.3-0.7-0.7s0.3-0.7,0.7-0.7h3.6c0.3,0,0.6-0.3,0.6-0.6v-3.6
			c0-0.4,0.3-0.7,0.7-0.7s0.7,0.3,0.7,0.7v3.6C123.2,108.2,122.3,109.1,121.2,109.1z M109.3,97.2h-3.7c-1.1,0-2-0.9-2-2v-3.7
			c0-1.1,0.9-2,2-2h3.7c1.1,0,2,0.9,2,2v3.7C111.3,96.3,110.4,97.2,109.3,97.2z M105.6,90.9c-0.3,0-0.6,0.3-0.6,0.6v3.7
			c0,0.3,0.3,0.6,0.6,0.6h3.7c0.3,0,0.6-0.3,0.6-0.6v-3.7c0-0.3-0.3-0.6-0.6-0.6H105.6z M109.3,106.3h-3.7c-1.1,0-2-0.9-2-2v-3.7
			c0-1.1,0.9-2,2-2h3.7c1.1,0,2,0.9,2,2v3.7C111.3,105.4,110.4,106.3,109.3,106.3z M105.6,100c-0.3,0-0.6,0.3-0.6,0.6v3.7
			c0,0.3,0.3,0.6,0.6,0.6h3.7c0.3,0,0.6-0.3,0.6-0.6v-3.7c0-0.3-0.3-0.6-0.6-0.6H105.6z M118.4,97.2h-3.7c-1.1,0-2-0.9-2-2v-3.7
			c0-1.1,0.9-2,2-2h3.7c1.1,0,2,0.9,2,2v3.7C120.4,96.3,119.5,97.2,118.4,97.2z M114.7,90.9c-0.3,0-0.6,0.3-0.6,0.6v3.7
			c0,0.3,0.3,0.6,0.6,0.6h3.7c0.3,0,0.6-0.3,0.6-0.6v-3.7c0-0.3-0.3-0.6-0.6-0.6H114.7z M119.3,102.1h-1.7v-2.4
			c0-0.6-0.5-1.1-1.1-1.1h-2.6c-0.6,0-1.1,0.5-1.1,1.1v2.6c0,0.6,0.5,1.1,1.1,1.1h2.4v1.7c0,0.6,0.5,1.1,1.1,1.1h1.9
			c0.6,0,1.1-0.5,1.1-1.1v-1.9C120.4,102.6,119.9,102.1,119.3,102.1z M114.1,100h2.1v2.1h-2.1V100z M119,104.9h-1.4v-1.4h1.4V104.9z
			 M107.8,94.4h-0.7c-0.4,0-0.7-0.3-0.7-0.7V93c0-0.4,0.3-0.7,0.7-0.7h0.7c0.4,0,0.7,0.3,0.7,0.7v0.7
			C108.5,94.1,108.2,94.4,107.8,94.4z M116.9,94.4h-0.7c-0.4,0-0.7-0.3-0.7-0.7V93c0-0.4,0.3-0.7,0.7-0.7h0.7c0.4,0,0.7,0.3,0.7,0.7
			v0.7C117.6,94.1,117.3,94.4,116.9,94.4z M107.8,103.5h-0.7c-0.4,0-0.7-0.3-0.7-0.7v-0.7c0-0.4,0.3-0.7,0.7-0.7h0.7
			c0.4,0,0.7,0.3,0.7,0.7v0.7C108.5,103.2,108.2,103.5,107.8,103.5z"/>
	</g>
</g>
</svg>
