<?xml version="1.0" encoding="utf-8"?>
<!-- Generator: Adobe Illustrator 22.0.0, SVG Export Plug-In . SVG Version: 6.00 Build 0)  -->
<svg version="1.1" id="Layer_1" xmlns="http://www.w3.org/2000/svg" xmlns:xlink="http://www.w3.org/1999/xlink" x="0px" y="0px"
	 width="95px" height="86px" viewBox="0 0 95 86" style="enable-background:new 0 0 95 86;" xml:space="preserve">
<style type="text/css">
	.st0{fill:none;stroke:#A832DF;stroke-width:4;stroke-linecap:round;stroke-linejoin:round;stroke-miterlimit:10;}
	.st1{fill:none;stroke:#A832DF;stroke-width:2;stroke-linecap:round;stroke-linejoin:round;stroke-miterlimit:10;}
	.st2{fill:none;stroke:#FFFFFF;stroke-width:4;stroke-linecap:round;stroke-linejoin:round;stroke-miterlimit:10;}
</style>
<g>
	<path class="st0" d="M19.6,54.2c13.8-7.8,23.9-7.1,32.8,0s22,6.3,22,6.3s6.3,0,6.3,5.2c0,5.2-4.5,6-7.8,6
		c-11.4,0-22.8-3.7-22.8-3.7"/>
	<path class="st0" d="M19.6,71.7c7.8,0.4,22,6.3,28,9.7s20,2,30.9-10.5l14.4-17.5c-11-8.9-19.9,7.2-19.9,7.2"/>
	<path class="st1" d="M47.2,31.6c-3.8,0-7-3-7.8-7.1c-0.8,4-4,7.1-7.8,7.1v0c4.4,0,8,4,8,9c0-5,3.6-9,8-9c0,0,0,0,0,0
		C47.5,31.6,47.4,31.6,47.2,31.6z"/>
	<path class="st1" d="M83.6,37c-3.8,0-7-3-7.8-7.1c-0.8,4-4,7.1-7.8,7.1v0c4.4,0,8,4,8,9c0-5,3.6-9,8-9c0,0,0,0,0,0
		C83.8,37,83.7,37,83.6,37z"/>
	<path class="st2" d="M72.7,13.6c-5.8,0-10.6-4.5-11.7-10.6c-1.2,6.1-6,10.6-11.7,10.6v0c6.6,0,12,6,12,13.5c0-7.4,5.4-13.5,12-13.5
		c0,0,0,0,0,0C73.1,13.6,72.9,13.6,72.7,13.6z"/>
	<path class="st2" d="M17.6,77.3H4.1c-1.1,0-2-0.9-2-2V52.2c0-1.1,0.9-2,2-2h13.5c1.1,0,2,0.9,2,2v23.1
		C19.6,76.4,18.7,77.3,17.6,77.3z"/>
	<circle class="st1" cx="10.9" cy="60.2" r="3.2"/>
</g>
</svg>
