<?xml version="1.0" encoding="utf-8"?>
<!-- Generator: Adobe Illustrator 22.0.0, SVG Export Plug-In . SVG Version: 6.00 Build 0)  -->
<svg version="1.1" id="Layer_1" xmlns="http://www.w3.org/2000/svg" xmlns:xlink="http://www.w3.org/1999/xlink" x="0px" y="0px"
	 width="60px" height="60px" viewBox="0 0 60 60" style="enable-background:new 0 0 60 60;" xml:space="preserve">
<style type="text/css">
	.st0{fill:#FFFFFF;}
</style>
<g>
	<path class="st0" d="M40.1,33.9l4.9,7.3l-5.2-0.5L37.5,45l-3.4-6.3c-0.3,0.1-0.6,0.2-1,0.3c-0.3,0.1-0.7,0.2-1,0.2
		c-0.3,0.1-0.7,0.1-1,0.1s-0.7,0-1.1,0c-0.4,0-0.7,0-1.1,0s-0.7-0.1-1-0.1c-0.4-0.1-0.7-0.1-1-0.2c-0.3-0.1-0.7-0.2-1-0.3L22.5,45
		l-2.3-4.2L15,41.2l4.9-7.3c-0.3-0.5-0.6-1-0.9-1.5s-0.5-1.1-0.7-1.7S18,29.6,17.9,29s-0.1-1.2-0.1-1.8c0-1.7,0.3-3.3,1-4.7
		s1.5-2.8,2.6-3.9c1.1-1.1,2.4-2,3.9-2.6c1.5-0.6,3.1-1,4.7-1c1.7,0,3.3,0.3,4.7,1c1.5,0.6,2.8,1.5,3.9,2.6c1.1,1.1,2,2.4,2.6,3.9
		s1,3.1,1,4.7c0,0.6,0,1.2-0.1,1.8s-0.2,1.2-0.4,1.7s-0.4,1.1-0.7,1.7S40.4,33.5,40.1,33.9z M19.7,27.2c0,1.4,0.3,2.8,0.8,4
		c0.5,1.2,1.3,2.3,2.2,3.3c0.9,0.9,2,1.7,3.3,2.2c1.2,0.5,2.6,0.8,4,0.8c1.4,0,2.8-0.3,4-0.8c1.2-0.5,2.3-1.3,3.3-2.2
		c0.9-0.9,1.7-2,2.2-3.3c0.5-1.2,0.8-2.6,0.8-4s-0.3-2.8-0.8-4c-0.5-1.2-1.3-2.3-2.2-3.3c-0.9-0.9-2-1.7-3.3-2.2
		c-1.2-0.5-2.6-0.8-4-0.8c-1.4,0-2.8,0.3-4,0.8c-1.2,0.5-2.3,1.3-3.3,2.2c-0.9,0.9-1.7,2-2.2,3.3C20,24.4,19.7,25.8,19.7,27.2z
		 M36.2,25.3l-3.9,2.9l1.5,4.6l-3.9-2.9l-4,2.9l1.5-4.6l-3.9-2.9h4.8l1.5-4.7l1.4,4.7H36.2z"/>
</g>
</svg>
