<?xml version="1.0" encoding="utf-8"?>
<!-- Generator: Adobe Illustrator 22.0.0, SVG Export Plug-In . SVG Version: 6.00 Build 0)  -->
<svg version="1.1" id="Layer_1" xmlns="http://www.w3.org/2000/svg" xmlns:xlink="http://www.w3.org/1999/xlink" x="0px" y="0px"
	 width="86px" height="86px" viewBox="0 0 86 86" style="enable-background:new 0 0 86 86;" xml:space="preserve">
<style type="text/css">
	.st0{fill:none;stroke:#6881D1;stroke-width:4;stroke-linecap:round;stroke-linejoin:round;stroke-miterlimit:10;}
	.st1{fill:none;stroke:#6881D1;stroke-width:2;stroke-linecap:round;stroke-linejoin:round;stroke-miterlimit:10;}
	.st2{fill:none;stroke:#FFFFFF;stroke-width:4;stroke-linecap:round;stroke-linejoin:round;stroke-miterlimit:10;}
</style>
<g>
	<g>
		<polygon class="st0" points="43,43 57.9,28.1 57.9,28.1 68.1,28.1 80.6,15.5 70.5,15.5 70.5,15.7 70.5,5.5 57.9,18.1 57.9,28.2 		
			"/>
		<path class="st1" d="M43,16.3c-14.7,0-26.7,11.9-26.7,26.7c0,14.7,11.9,26.7,26.7,26.7c14.7,0,26.7-11.9,26.7-26.7"/>
		<path class="st2" d="M57.9,43c0,8.2-6.7,14.9-14.9,14.9c-8.2,0-14.9-6.7-14.9-14.9c0-8.2,6.7-14.9,14.9-14.9"/>
		<path class="st2" d="M60.2,6.9C55,4.4,49.2,3,43,3C20.9,3,3,20.9,3,43s17.9,40,40,40c22.1,0,40-17.9,40-40
			c0-5.8-1.3-11.4-3.5-16.4"/>
	</g>
</g>
</svg>
