<?xml version="1.0" encoding="utf-8"?>
<!-- Generator: Adobe Illustrator 22.0.0, SVG Export Plug-In . SVG Version: 6.00 Build 0)  -->
<svg version="1.1" id="Layer_1" xmlns="http://www.w3.org/2000/svg" xmlns:xlink="http://www.w3.org/1999/xlink" x="0px" y="0px"
	 width="200px" height="35px" viewBox="0 0 200 35" style="enable-background:new 0 0 200 35;" xml:space="preserve">
<style type="text/css">
	.st0{fill:#00C6C1;}
	.st1{fill:#FFFFFF;}
</style>
<g>
	<g>
		<g>
			<path class="st0" d="M147.5,14c-1.6,0-3.1,0-4.7,0c-0.1-0.3-0.2-0.5-0.3-0.8c-1.2-2.3-3.1-3.4-5.7-3.4c-2.9,0-5.2,1.8-6.3,4.6
				c-1.2,3.1-0.5,6.8,1.8,9.1c3.1,3.1,8.7,2.4,10.6-1.9c0.1-0.1,0.1-0.2,0.2-0.4c1.6,0,3.1,0,4.7,0c-0.1,0.2-0.1,0.5-0.2,0.7
				c-1.4,4.2-4.3,6.9-8.7,7.6c-4.2,0.7-7.7-0.6-10.5-3.8c-4.4-5.1-3.9-13,1.1-17.5c6.3-5.5,15.7-2.7,18,5.4
				C147.5,13.9,147.5,14,147.5,14z"/>
			<path class="st0" d="M154.6,22.6c0.4,1.4,1.1,2.4,2.4,2.8c1.8,0.6,3.5,0.4,4.9-1c1.5,0,3,0,4.5,0c-0.1,0.2-0.2,0.4-0.3,0.6
				c-2.4,4.9-8.7,6.7-13.2,2.6c-2.6-2.3-3.6-5.3-2.8-8.7c0.8-3.3,2.9-5.6,6.2-6.5c4.4-1.3,9.1,1.1,10.4,6.1c0.3,1.4,0.4,2.7,0.1,4.2
				C162.7,22.6,158.7,22.6,154.6,22.6z M162.7,19.6c-0.2-2-2.2-3.5-4.4-3.4c-1.9,0.1-3.8,1.8-3.8,3.4
				C157.2,19.6,159.9,19.6,162.7,19.6z"/>
			<path class="st1" d="M97.9,19c0.1-1.5-0.7-2.7-2-3c-1.5-0.3-2.9,0.2-3.5,1.8c-1.4,0-2.8,0-4.3,0c0-0.2,0-0.3,0.1-0.5
				c0.4-2,1.5-3.5,3.2-4.4c2.7-1.4,5.4-1.5,8,0.1c1.8,1.1,2.7,2.9,2.9,4.9c0.1,0.6,0,1.3,0,1.9c0,3,0,6.1,0,9.1c0,0.1,0,0.3,0,0.5
				c-1.1,0-2.1,0-3.2,0c-0.2-0.5-0.5-1.1-0.7-1.7c-0.1,0.1-0.2,0.2-0.3,0.2c-2.2,1.7-4.6,2-7.1,1.3c-1.9-0.6-3-1.8-3.3-3.8
				c-0.3-2,0.3-3.7,2-4.9c1.3-0.8,2.7-1.3,4.2-1.4c1.2-0.2,2.4-0.2,3.6-0.3C97.6,19,97.7,19,97.9,19z M97.9,22
				c-1,0.1-1.9,0.1-2.9,0.2c-0.7,0.1-1.4,0.3-2.1,0.5c-0.5,0.2-0.8,0.5-1,1c-0.4,1.2,0.3,2.4,1.5,2.6C95.9,26.7,98.3,25.3,97.9,22z"
				/>
			<path class="st1" d="M110.7,29.6c-1.5,0-2.9,0-4.3,0c0-5.8,0-11.6,0-17.4c1.1,0,2.1,0,3.2,0c0.2,0.5,0.5,1.1,0.8,1.7
				c0.8-0.7,1.7-1.1,2.6-1.5c4.3-1.6,8.7,1.2,9.2,5.7c0.1,0.5,0.1,1,0.1,1.4c0,3.2,0,6.5,0,9.7c0,0.1,0,0.2,0,0.4
				c-1.5,0-2.9,0-4.4,0c0-0.2,0-0.3,0-0.4c0-3,0-6.1,0-9.1c0-1.1-0.2-2.1-1.1-2.9c-1.1-1.1-2.5-1.2-3.9-0.8c-1.4,0.5-2.1,1.5-2.3,3
				c0,0.3,0,0.6,0,0.9c0,2.9,0,5.9,0,8.8C110.7,29.3,110.7,29.4,110.7,29.6z"/>
			<path class="st1" d="M52.8,10.1c-2.4,0-4.7,0-7,0c0-1.5,0-2.9,0-4.3c6.2,0,12.3,0,18.5,0c0,1.4,0,2.9,0,4.3c-2.3,0-4.6,0-7,0
				c0,6.5,0,13,0,19.5c-1.5,0-3,0-4.6,0C52.8,23.1,52.8,16.6,52.8,10.1z"/>
			<path class="st1" d="M76.9,16.2c-0.9,0-1.8,0-2.6,0c0-1.2,0-2.4,0-3.6c0.4,0,0.7,0,1.1,0c1.4,0,2.1-0.7,2.1-2.1
				c0-0.8,0-1.6,0-2.4c1.3,0,2.5,0,3.8,0c0,1.4,0,2.7,0,4.1c1.3,0,2.5,0,3.8,0c0,1.3,0,2.6,0,4c-1.2,0-2.5,0-3.8,0
				c0,0.2,0,0.3,0,0.5c0,2.2,0,4.4,0,6.6c0,0.3,0,0.6,0.1,0.9c0.2,1,1.1,1.7,2.2,1.8c0.4,0,0.9,0,1.3-0.1c0,1.2,0,2.4,0,3.7
				c-0.5,0.1-1,0.3-1.5,0.3c-3.8,0.3-6.4-2.2-6.4-6.1c0-2.3,0-4.7,0-7C76.9,16.6,76.9,16.4,76.9,16.2z"/>
			<path class="st0" d="M191.8,25.7c0,1.3,0,2.5,0,3.8c-0.4,0.1-0.8,0.2-1.2,0.3c-1.9,0.2-3.7-0.1-5.1-1.5c-1.1-1.1-1.7-2.4-1.7-3.9
				c-0.1-2.5,0-5,0-7.6c0-0.2,0-0.3,0-0.6c-0.9,0-1.8,0-2.6,0c0-1.2,0-2.4,0-3.6c0.5,0,0.9,0,1.4,0c1,0,1.7-0.7,1.8-1.7
				c0-0.3,0-0.5,0-0.8c0-0.7,0-1.3,0-2c1.3,0,2.5,0,3.8,0c0,1.4,0,2.7,0,4.1c1.3,0,2.5,0,3.8,0c0,1.3,0,2.7,0,4c-1.2,0-2.5,0-3.7,0
				c0,0.2,0,0.3,0,0.4c0,2.2,0,4.5,0,6.7c0,0.6,0.1,1.2,0.5,1.7c0.7,0.8,1.6,1,2.6,0.8C191.4,25.8,191.6,25.7,191.8,25.7z"/>
			<path class="st0" d="M174.5,29.6c-1.5,0-2.9,0-4.3,0c0-5.8,0-11.6,0-17.4c1.1,0,2.1,0,3.2,0c0.2,0.6,0.5,1.2,0.7,1.8
				c1.5-1.6,3.2-2.5,5.5-1.9c0,1.5,0,3,0,4.5c-0.4,0-0.8-0.1-1.1-0.1c-2.3-0.2-3.9,1.3-4,3.6c0,3,0,6,0,9
				C174.5,29.3,174.5,29.4,174.5,29.6z"/>
			<path class="st1" d="M67.1,29.6c0-5.8,0-11.6,0-17.4c1.4,0,2.9,0,4.3,0c0,5.8,0,11.6,0,17.4C70,29.6,68.5,29.6,67.1,29.6z"/>
			<path class="st1" d="M71.8,7.6c0,1.3-1.2,2.5-2.5,2.5c-1.3,0-2.5-1.2-2.5-2.5c0-1.3,1.2-2.5,2.5-2.5C70.7,5.2,71.8,6.3,71.8,7.6z
				"/>
			<path class="st0" d="M197.4,29.8c-1.3,0-2.5-1.1-2.5-2.4c0-1.3,1.1-2.5,2.5-2.5c1.3,0,2.5,1.1,2.5,2.5
				C199.8,28.7,198.7,29.8,197.4,29.8z"/>
		</g>
	</g>
	<g>
		<path class="st1" d="M17.7,35c-4.8-0.1-9-1.8-12.4-5.2C2,26.6,0.2,22.2,0.2,17.4C0.2,7.8,8-0.1,17.8,0c9.7,0.1,17.5,8,17.4,17.5
			c0,4.7-1.9,9.1-5.2,12.3C26.6,33.2,22.4,34.9,17.7,35z M17.7,33.7c8.9,0,16.2-7.2,16.2-16.1c0-8.8-7.1-16.3-16.2-16.3
			c-9,0-16.2,7.3-16.3,16.1C1.4,26.5,8.8,33.7,17.7,33.7z"/>
		<path class="st0" d="M26.5,12.6v-1v-0.2c0,0-8.5,4.8-8.6,4.9c-0.1,0-0.2,0.1-0.3,0.1c-0.1,0-0.2,0-0.3-0.1c0,0-2.1-1.2-4.2-2.4
			v2.5c0.8,0.5,1.6,0.9,2.4,1.4c0.6,0.3,1.2,0.7,1.8,1c0.1,0.1,0.3,0.1,0.4,0.1v0c0,0,0,0,0,0c0,0,0,0,0,0v0c0.1,0,0.3,0,0.4-0.1
			c0.6-0.3,1.2-0.7,1.8-1c2-1.1,3.9-2.3,5.9-3.4c0.1-0.1,0.2-0.1,0.3-0.2c0.3-0.2,0.4-0.4,0.4-0.7C26.6,13.1,26.5,12.6,26.5,12.6z"
			/>
		<path class="st1" d="M26.5,8.1V7V6.8c0,0-8.5,4.8-8.6,4.9c-0.1,0-0.2,0.1-0.3,0.1c-0.1,0-0.2,0-0.3-0.1c-0.1,0-8.6-4.9-8.6-4.9V7
			v1c0,0,0,0.5,0,0.8c0,0.3,0.2,0.5,0.4,0.7c0.1,0.1,0.2,0.1,0.3,0.2c2,1.1,3.9,2.3,5.9,3.4c0.6,0.3,1.2,0.7,1.8,1
			c0.1,0.1,0.3,0.1,0.4,0.1v0c0,0,0,0,0,0c0,0,0,0,0,0v0c0.1,0,0.3,0,0.4-0.1c0.6-0.3,1.2-0.7,1.8-1c2-1.1,3.9-2.3,5.9-3.4
			c0.1-0.1,0.2-0.1,0.3-0.2c0.3-0.2,0.4-0.4,0.4-0.7C26.6,8.6,26.5,8.1,26.5,8.1z"/>
		<g>
			<path class="st1" d="M8.8,11.3v0.2v1c0,0,0,0.5,0,0.8c0,0.3,0.2,0.5,0.4,0.7c0.1,0.1,0.2,0.1,0.3,0.2c0.9,0.5,1.8,1.1,2.8,1.6
				v-2.5C10.5,12.3,8.8,11.3,8.8,11.3z"/>
		</g>
		<path class="st1" d="M22,19.6v-0.5V19c0,0-4.1,2.3-4.1,2.4c0,0-0.1,0-0.1,0c-0.1,0-0.1,0-0.1,0c0,0-4.1-2.4-4.1-2.4v0.1v0.5
			c0,0,0,0.2,0,0.4c0,0.1,0.1,0.3,0.2,0.3c0.1,0,0.1,0.1,0.2,0.1c1,0.6,1.9,1.1,2.9,1.7c0.3,0.2,0.6,0.3,0.9,0.5
			c0.1,0,0.1,0.1,0.2,0.1v0c0,0,0,0,0,0c0,0,0,0,0,0v0c0.1,0,0.1,0,0.2-0.1c0.3-0.2,0.6-0.3,0.9-0.5c1-0.6,1.9-1.1,2.9-1.7
			c0.1,0,0.1-0.1,0.2-0.1c0.1-0.1,0.2-0.2,0.2-0.3C22,19.8,22,19.6,22,19.6z"/>
		<path class="st1" d="M22,22.4v-0.5v-0.1c0,0-4.1,2.3-4.1,2.4c0,0-0.1,0-0.1,0c-0.1,0-0.1,0-0.1,0c0,0-4.1-2.4-4.1-2.4v0.1v0.5
			c0,0,0,0.2,0,0.4c0,0.1,0.1,0.3,0.2,0.3c0.1,0,0.1,0.1,0.2,0.1c1,0.6,1.9,1.1,2.9,1.7c0.3,0.2,0.6,0.3,0.9,0.5
			c0.1,0,0.1,0.1,0.2,0.1v0c0,0,0,0,0,0c0,0,0,0,0,0v0c0.1,0,0.1,0,0.2-0.1c0.3-0.2,0.6-0.3,0.9-0.5c1-0.6,1.9-1.1,2.9-1.7
			c0.1,0,0.1-0.1,0.2-0.1c0.1-0.1,0.2-0.2,0.2-0.3C22,22.6,22,22.4,22,22.4z"/>
		<path class="st1" d="M22,25.1v-0.5v-0.1c0,0-4.1,2.3-4.1,2.4c0,0-0.1,0-0.1,0c-0.1,0-0.1,0-0.1,0c0,0-4.1-2.4-4.1-2.4v0.1v0.5
			c0,0,0,0.2,0,0.4c0,0.1,0.1,0.3,0.2,0.3c0.1,0,0.1,0.1,0.2,0.1c1,0.6,1.9,1.1,2.9,1.7c0.3,0.2,0.6,0.3,0.9,0.5
			c0.1,0,0.1,0.1,0.2,0.1l0,0c0,0,0,0,0,0c0,0,0,0,0,0l0,0c0.1,0,0.1,0,0.2-0.1c0.3-0.2,0.6-0.3,0.9-0.5c1-0.6,1.9-1.1,2.9-1.7
			c0.1,0,0.1-0.1,0.2-0.1c0.1-0.1,0.2-0.2,0.2-0.3C22,25.3,22,25.1,22,25.1z"/>
		<path class="st1" d="M22,27.8v-0.5v-0.1c0,0-4.1,2.3-4.1,2.4c0,0-0.1,0-0.1,0c-0.1,0-0.1,0-0.1,0c0,0-4.1-2.4-4.1-2.4v0.1v0.5
			c0,0,0,0.2,0,0.4c0,0.1,0.1,0.3,0.2,0.3c0.1,0,0.1,0.1,0.2,0.1c1,0.6,1.9,1.1,2.9,1.7c0.3,0.2,0.6,0.3,0.9,0.5
			c0.1,0,0.1,0.1,0.2,0.1l0,0c0,0,0,0,0,0c0,0,0,0,0,0l0,0c0.1,0,0.1,0,0.2-0.1c0.3-0.2,0.6-0.3,0.9-0.5c1-0.6,1.9-1.1,2.9-1.7
			c0.1,0,0.1-0.1,0.2-0.1c0.1-0.1,0.2-0.2,0.2-0.3C22,28.1,22,27.8,22,27.8z"/>
	</g>
</g>
</svg>
