<?xml version="1.0" encoding="utf-8"?>
<!-- Generator: Adobe Illustrator 22.0.0, SVG Export Plug-In . SVG Version: 6.00 Build 0)  -->
<svg version="1.1" id="Layer_1" xmlns="http://www.w3.org/2000/svg" xmlns:xlink="http://www.w3.org/1999/xlink" x="0px" y="0px"
	 width="200px" height="155px" viewBox="0 0 200 155" style="enable-background:new 0 0 200 155;" xml:space="preserve">
<style type="text/css">
	.st0{fill:#FFFFFF;}
	.st1{fill:#00C6C1;}
</style>
<g>
	<g>
		<path class="st0" d="M100,100.5c-13.8-0.2-25.6-5.1-35.4-14.7C55.4,76.5,50,63.8,50,50.3c0.1-27.4,22.5-49.9,50.3-49.8
			c27.7,0.2,49.9,23,49.7,50.1c0.1,13.4-5.4,26.1-14.7,35.3C125.5,95.5,113.7,100.3,100,100.5z M100,96.8
			c25.4,0.1,46.3-20.7,46.4-46.1c0.1-25.2-20.2-46.5-46.2-46.5C74.4,4.1,53.8,24.9,53.7,50.2C53.5,76.1,74.7,96.8,100,96.8z"/>
		<path class="st1" d="M125.4,36.4v-2.9v-0.7c0,0-24.2,13.8-24.5,13.9c-0.3,0.1-0.6,0.2-0.9,0.2c-0.3,0-0.6-0.1-0.9-0.2
			c-0.1-0.1-6.1-3.5-12.1-6.9V47c2.2,1.3,4.5,2.6,6.7,3.9c1.7,1,3.4,2,5.1,2.9c0.4,0.2,0.8,0.3,1.2,0.3v0c0,0,0,0,0,0c0,0,0,0,0,0v0
			c0.4,0,0.8-0.1,1.2-0.3c1.7-1,3.4-1.9,5.1-2.9c5.6-3.3,11.2-6.5,16.9-9.8c0.3-0.2,0.6-0.4,1-0.6c0.7-0.4,1.2-1.1,1.2-2
			C125.4,37.8,125.4,36.4,125.4,36.4z"/>
		<path class="st0" d="M125.4,23.5v-2.9v-0.7c0,0-24.2,13.8-24.5,13.9c-0.3,0.1-0.6,0.2-0.9,0.2c-0.3,0-0.6-0.1-0.9-0.2
			c-0.2-0.1-24.5-13.9-24.5-13.9v0.7v2.9c0,0-0.1,1.4,0,2.2c0.1,0.9,0.5,1.5,1.2,2c0.3,0.2,0.6,0.4,1,0.6c5.6,3.3,11.2,6.5,16.9,9.8
			c1.7,1,3.4,2,5.1,2.9c0.4,0.2,0.8,0.3,1.2,0.3v0c0,0,0,0,0,0c0,0,0,0,0,0v0c0.4,0,0.8-0.1,1.2-0.3c1.7-1,3.4-1.9,5.1-2.9
			c5.6-3.3,11.2-6.5,16.9-9.8c0.3-0.2,0.6-0.4,1-0.6c0.7-0.4,1.2-1.1,1.2-2C125.4,24.9,125.4,23.5,125.4,23.5z"/>
		<g>
			<path class="st0" d="M74.7,32.8v0.7v2.9c0,0-0.1,1.4,0,2.2c0.1,0.9,0.5,1.5,1.2,2c0.3,0.2,0.6,0.4,1,0.6c2.6,1.5,5.2,3,7.9,4.6
				v-7.1C79.5,35.5,74.7,32.8,74.7,32.8z"/>
		</g>
		<path class="st0" d="M112.3,56.5v-1.4v-0.3c0,0-11.7,6.7-11.8,6.7c-0.1,0.1-0.3,0.1-0.4,0.1c-0.1,0-0.3,0-0.4-0.1
			c-0.1-0.1-11.8-6.7-11.8-6.7v0.3v1.4c0,0,0,0.7,0,1.1c0,0.4,0.2,0.7,0.6,1c0.2,0.1,0.3,0.2,0.5,0.3c2.7,1.6,5.4,3.2,8.2,4.7
			c0.8,0.5,1.6,0.9,2.5,1.4c0.2,0.1,0.4,0.2,0.6,0.2l0,0c0,0,0,0,0,0s0,0,0,0l0,0c0.2,0,0.4-0.1,0.6-0.2c0.8-0.5,1.6-0.9,2.5-1.4
			c2.7-1.6,5.4-3.2,8.2-4.7c0.2-0.1,0.3-0.2,0.5-0.3c0.4-0.2,0.6-0.5,0.6-1C112.3,57.2,112.3,56.5,112.3,56.5z"/>
		<path class="st0" d="M112.3,64.4V63v-0.3c0,0-11.7,6.7-11.8,6.7c-0.1,0.1-0.3,0.1-0.4,0.1c-0.1,0-0.3,0-0.4-0.1
			c-0.1-0.1-11.8-6.7-11.8-6.7V63v1.4c0,0,0,0.7,0,1.1c0,0.4,0.2,0.7,0.6,1c0.2,0.1,0.3,0.2,0.5,0.3c2.7,1.6,5.4,3.2,8.2,4.7
			c0.8,0.5,1.6,0.9,2.5,1.4C99.7,73,99.8,73,100,73l0,0c0,0,0,0,0,0s0,0,0,0l0,0c0.2,0,0.4-0.1,0.6-0.2c0.8-0.5,1.6-0.9,2.5-1.4
			c2.7-1.6,5.4-3.2,8.2-4.7c0.2-0.1,0.3-0.2,0.5-0.3c0.4-0.2,0.6-0.5,0.6-1C112.3,65.1,112.3,64.4,112.3,64.4z"/>
		<path class="st0" d="M112.3,72.1v-1.4v-0.3c0,0-11.7,6.7-11.8,6.7c-0.1,0.1-0.3,0.1-0.4,0.1c-0.1,0-0.3,0-0.4-0.1
			c-0.1-0.1-11.8-6.7-11.8-6.7v0.3v1.4c0,0,0,0.7,0,1.1c0,0.4,0.2,0.7,0.6,1c0.2,0.1,0.3,0.2,0.5,0.3c2.7,1.6,5.4,3.2,8.2,4.7
			c0.8,0.5,1.6,0.9,2.5,1.4c0.2,0.1,0.4,0.2,0.6,0.2l0,0c0,0,0,0,0,0s0,0,0,0l0,0c0.2,0,0.4-0.1,0.6-0.2c0.8-0.5,1.6-0.9,2.5-1.4
			c2.7-1.6,5.4-3.2,8.2-4.7c0.2-0.1,0.3-0.2,0.5-0.3c0.4-0.2,0.6-0.5,0.6-1C112.3,72.8,112.3,72.1,112.3,72.1z"/>
		<path class="st0" d="M112.3,80v-1.4v-0.3c0,0-11.7,6.7-11.8,6.7c-0.1,0.1-0.3,0.1-0.4,0.1c-0.1,0-0.3,0-0.4-0.1
			c-0.1-0.1-11.8-6.7-11.8-6.7v0.3V80c0,0,0,0.7,0,1.1c0,0.4,0.2,0.7,0.6,1c0.2,0.1,0.3,0.2,0.5,0.3c2.7,1.6,5.4,3.2,8.2,4.7
			c0.8,0.5,1.6,0.9,2.5,1.4c0.2,0.1,0.4,0.2,0.6,0.2l0,0c0,0,0,0,0,0s0,0,0,0l0,0c0.2,0,0.4-0.1,0.6-0.2c0.8-0.5,1.6-0.9,2.5-1.4
			c2.7-1.6,5.4-3.2,8.2-4.7c0.2-0.1,0.3-0.2,0.5-0.3c0.4-0.2,0.6-0.5,0.6-1C112.3,80.7,112.3,80,112.3,80z"/>
	</g>
	<g>
		<g>
			<path class="st1" d="M132.1,134c-2,0-4.1,0-6.1,0c-0.1-0.3-0.2-0.7-0.4-1c-1.5-3-4.1-4.4-7.4-4.4c-3.7,0-6.7,2.3-8.2,6
				c-1.6,4-0.7,8.8,2.3,11.8c4,4,11.2,3.1,13.7-2.4c0.1-0.2,0.1-0.3,0.2-0.5c2,0,4.1,0,6.1,0c-0.1,0.3-0.1,0.6-0.2,0.9
				c-1.9,5.4-5.6,8.9-11.2,9.9c-5.4,1-10-0.8-13.7-4.9c-5.8-6.6-5.1-16.9,1.5-22.7c8.2-7.2,20.4-3.5,23.4,7
				C132,133.8,132,133.9,132.1,134z"/>
			<path class="st1" d="M141.2,145.1c0.5,1.8,1.4,3.1,3.1,3.6c2.3,0.7,4.5,0.5,6.3-1.3c1.9,0,3.9,0,5.9,0c-0.1,0.3-0.2,0.6-0.3,0.8
				c-3.1,6.3-11.3,8.6-17.2,3.4c-3.4-3-4.6-6.9-3.6-11.3c1-4.3,3.8-7.2,8-8.5c5.7-1.7,11.8,1.4,13.5,7.9c0.4,1.8,0.5,3.6,0.1,5.4
				C151.8,145.1,146.5,145.1,141.2,145.1z M151.8,141.2c-0.2-2.6-2.8-4.5-5.8-4.4c-2.5,0.1-4.9,2.3-4.9,4.4
				C144.6,141.2,148.2,141.2,151.8,141.2z"/>
			<path class="st0" d="M67.7,140.5c0.1-1.9-0.9-3.4-2.6-3.8c-1.9-0.4-3.8,0.3-4.5,2.3c-1.8,0-3.7,0-5.6,0c0-0.2,0-0.4,0.1-0.6
				c0.5-2.5,1.9-4.5,4.2-5.7c3.5-1.8,7-1.9,10.4,0.2c2.3,1.5,3.5,3.7,3.7,6.4c0.1,0.8,0.1,1.7,0.1,2.5c0,4,0,7.9,0,11.9
				c0,0.2,0,0.4,0,0.6c-1.4,0-2.8,0-4.2,0c-0.3-0.7-0.6-1.4-1-2.1c-0.2,0.1-0.3,0.2-0.4,0.3c-2.8,2.2-5.9,2.6-9.2,1.6
				c-2.4-0.7-4-2.4-4.3-4.9c-0.3-2.6,0.4-4.8,2.7-6.4c1.7-1.1,3.5-1.6,5.5-1.9c1.5-0.2,3.1-0.3,4.7-0.4
				C67.3,140.4,67.5,140.5,67.7,140.5z M67.7,144.3c-1.3,0.1-2.5,0.1-3.7,0.3c-0.9,0.1-1.8,0.4-2.7,0.7c-0.6,0.2-1,0.6-1.2,1.3
				c-0.5,1.6,0.4,3.1,2,3.4C65,150.5,68.2,148.6,67.7,144.3z"/>
			<path class="st0" d="M84.2,154.2c-1.9,0-3.8,0-5.6,0c0-7.5,0-15,0-22.6c1.4,0,2.8,0,4.2,0c0.3,0.7,0.6,1.4,1,2.2
				c1.1-0.9,2.2-1.5,3.4-1.9c5.5-2,11.3,1.5,12,7.4c0.1,0.6,0.1,1.2,0.1,1.9c0,4.2,0,8.4,0,12.6c0,0.2,0,0.3,0,0.5
				c-1.9,0-3.8,0-5.7,0c0-0.2,0-0.4,0-0.6c0-4,0-7.9,0-11.9c0-1.4-0.3-2.7-1.4-3.7c-1.4-1.4-3.2-1.6-5-1c-1.8,0.6-2.7,2-2.9,3.8
				c-0.1,0.4,0,0.8,0,1.2c0,3.8,0,7.6,0,11.5C84.2,153.8,84.2,154,84.2,154.2z"/>
			<path class="st0" d="M9.1,128.9c-3.1,0-6.1,0-9.1,0c0-1.9,0-3.7,0-5.6c8,0,16,0,24.1,0c0,1.9,0,3.7,0,5.6c-3,0-6,0-9.1,0
				c0,8.5,0,16.9,0,25.4c-2,0-3.9,0-5.9,0C9.1,145.8,9.1,137.4,9.1,128.9z"/>
			<path class="st0" d="M40.4,136.8c-1.2,0-2.3,0-3.4,0c0-1.6,0-3.1,0-4.7c0.5,0,0.9,0,1.4,0c1.9,0,2.7-0.9,2.7-2.8c0-1,0-2,0-3.1
				c1.6,0,3.2,0,4.9,0c0,1.8,0,3.5,0,5.4c1.7,0,3.3,0,4.9,0c0,1.7,0,3.4,0,5.2c-1.6,0-3.2,0-4.9,0c0,0.2,0,0.4,0,0.6
				c0,2.8,0,5.7,0,8.5c0,0.4,0,0.8,0.1,1.1c0.3,1.4,1.4,2.2,2.8,2.3c0.6,0,1.1-0.1,1.7-0.1c0,1.6,0,3.2,0,4.9
				c-0.6,0.1-1.3,0.3-1.9,0.4c-4.9,0.4-8.3-2.8-8.3-7.9c0-3,0-6,0-9.1C40.4,137.3,40.4,137.1,40.4,136.8z"/>
			<path class="st1" d="M189.6,149.1c0,1.6,0,3.2,0,4.9c-0.5,0.1-1,0.3-1.5,0.4c-2.5,0.3-4.8-0.2-6.6-2c-1.4-1.4-2.1-3.1-2.2-5.1
				c-0.1-3.3,0-6.6-0.1-9.8c0-0.2,0-0.4,0-0.7c-1.2,0-2.3,0-3.4,0c0-1.6,0-3.1,0-4.7c0.6,0,1.2,0,1.8,0c1.3-0.1,2.2-0.9,2.3-2.2
				c0-0.4,0-0.7,0-1.1c0-0.8,0-1.7,0-2.6c1.6,0,3.3,0,4.9,0c0,1.8,0,3.5,0,5.4c1.7,0,3.2,0,4.9,0c0,1.8,0,3.4,0,5.2
				c-1.6,0-3.2,0-4.9,0c0,0.2,0,0.4,0,0.5c0,2.9,0,5.8,0,8.7c0,0.8,0.1,1.6,0.6,2.2c0.9,1.1,2.1,1.2,3.4,1.1
				C189.1,149.3,189.3,149.2,189.6,149.1z"/>
			<path class="st1" d="M167.1,154.2c-1.9,0-3.8,0-5.6,0c0-7.5,0-15.1,0-22.6c1.4,0,2.7,0,4.2,0c0.3,0.8,0.6,1.5,1,2.4
				c2-2.1,4.2-3.2,7.1-2.4c0,2,0,3.9,0,5.9c-0.5-0.1-1-0.1-1.5-0.2c-3-0.2-5.1,1.6-5.1,4.6c-0.1,3.9,0,7.8,0,11.7
				C167.1,153.8,167.1,154,167.1,154.2z"/>
			<path class="st0" d="M27.7,154.2c0-7.5,0-15.1,0-22.6c1.9,0,3.7,0,5.6,0c0,7.5,0,15.1,0,22.6C31.4,154.2,29.6,154.2,27.7,154.2z"
				/>
			<path class="st0" d="M33.8,125.7c0,1.7-1.5,3.2-3.2,3.2c-1.7,0-3.2-1.5-3.2-3.2c0-1.7,1.5-3.2,3.2-3.2
				C32.3,122.5,33.8,124,33.8,125.7z"/>
			<path class="st1" d="M196.8,154.5c-1.7,0-3.2-1.4-3.2-3.2c0-1.7,1.5-3.2,3.2-3.2c1.7,0,3.2,1.4,3.2,3.2
				C200,153,198.6,154.5,196.8,154.5z"/>
		</g>
	</g>
</g>
</svg>
