<?xml version="1.0" encoding="utf-8"?>
<!-- Generator: Adobe Illustrator 22.0.0, SVG Export Plug-In . SVG Version: 6.00 Build 0)  -->
<svg version="1.1" id="Layer_1" xmlns="http://www.w3.org/2000/svg" xmlns:xlink="http://www.w3.org/1999/xlink" x="0px" y="0px"
	 width="224px" height="224px" viewBox="0 0 224 224" style="enable-background:new 0 0 224 224;" xml:space="preserve">
<style type="text/css">
	.st0{opacity:5.000000e-02;fill:#FFFFFF;}
	.st1{fill:none;stroke:url(#SVGID_1_);stroke-width:2;stroke-miterlimit:10;}
	.st2{fill:none;stroke:#FFFFFF;stroke-width:4;stroke-linecap:round;stroke-linejoin:round;stroke-miterlimit:10;}
	.st3{fill:none;stroke:#00C6C1;stroke-width:2;stroke-linecap:round;stroke-linejoin:round;stroke-miterlimit:10;}
	.st4{fill:#00C6C1;}
	.st5{fill:none;stroke:#00C6C1;stroke-width:4;stroke-linecap:round;stroke-linejoin:round;stroke-miterlimit:10;}
	.st6{font-family:'SourceSansPro-Bold';}
	.st7{font-size:17.28px;}
</style>
<g>
	<circle class="st0" cx="112" cy="112" r="100"/>
	<linearGradient id="SVGID_1_" gradientUnits="userSpaceOnUse" x1="1" y1="112" x2="223" y2="112">
		<stop  offset="0" style="stop-color:#00C6C1"/>
		<stop  offset="1" style="stop-color:#DF00EC"/>
	</linearGradient>
	<circle class="st1" cx="112" cy="112" r="110"/>
	<g>
		<path class="st2" d="M134.6,160H89.4c-5.4,0-9.9-4.4-9.9-9.9V55.9c0-5.4,4.4-9.9,9.9-9.9h45.3c5.4,0,9.9,4.4,9.9,9.9v94.3
			C144.5,155.6,140.1,160,134.6,160z"/>
		<g>
			<path class="st3" d="M131.5,91.5h-39c-3,0-5.5-2.5-5.5-5.5v0c0-3,2.5-5.5,5.5-5.5h39c3,0,5.5,2.5,5.5,5.5v0
				C137,89,134.5,91.5,131.5,91.5z"/>
			<path class="st3" d="M131.5,108.5h-39c-3,0-5.5-2.5-5.5-5.5v0c0-3,2.5-5.5,5.5-5.5h39c3,0,5.5,2.5,5.5,5.5v0
				C137,106,134.5,108.5,131.5,108.5z"/>
			<path class="st4" d="M131.5,125.5h-39c-3,0-5.5-2.5-5.5-5.5v0c0-3,2.5-5.5,5.5-5.5h39c3,0,5.5,2.5,5.5,5.5v0
				C137,123,134.5,125.5,131.5,125.5z"/>
		</g>
		<circle class="st5" cx="111.8" cy="145" r="5"/>
		<text transform="matrix(1 0 0 1 92.2583 111.936)" class="st4 st6 st7">*****</text>
	</g>
</g>
</svg>
